<svg width="24" height="24" viewBox="0 0 24 24" fill="none" xmlns="http://www.w3.org/2000/svg">
<path fill-rule="evenodd" clip-rule="evenodd" d="M19 4H5C2.79086 4 1 5.79086 1 8V9V16C1 18.2091 2.79086 20 5 20H19C21.2091 20 23 18.2091 23 16V9V8C23 5.79086 21.2091 4 19 4ZM21 8C21 6.89543 20.1046 6 19 6H5C3.89543 6 3 6.89543 3 8H21ZM3 10H21V16C21 17.1046 20.1046 18 19 18H5C3.89543 18 3 17.1046 3 16V10ZM19 15C19 14.4477 18.5523 14 18 14H15L14.8834 14.0067C14.386 14.0645 14 14.4872 14 15C14 15.5523 14.4477 16 15 16H18L18.1166 15.9933C18.614 15.9355 19 15.5128 19 15ZM12 14C12.5523 14 13 14.4477 13 15C13 15.5128 12.614 15.9355 12.1166 15.9933L12 16H11C10.4477 16 10 15.5523 10 15C10 14.4872 10.386 14.0645 10.8834 14.0067L11 14H12Z" fill="#7D8592"/>
</svg>

