<svg width="24" height="24" viewBox="0 0 24 24" fill="none" xmlns="http://www.w3.org/2000/svg">
<path fill-rule="evenodd" clip-rule="evenodd" d="M17.9956 6.23375C17.8736 3.29884 15.2127 1 12 1C8.71081 1 6 3.40961 6 6.44444V9C3.79086 9 2 10.7909 2 13V18C2 20.2091 3.79086 22 6 22H18C20.2091 22 22 20.2091 22 18V13C22 10.7909 20.2091 9 18 9V6.44444L17.9956 6.23375ZM16 9V6.44444C16 4.57008 14.2337 3 12 3C9.8384 3 8.11444 4.47042 8.00547 6.26405L8 6.44444V9H16ZM7 11H6C4.89543 11 4 11.8954 4 13V18C4 19.1046 4.89543 20 6 20H18C19.1046 20 20 19.1046 20 18V13C20 11.8954 19.1046 11 18 11H17H7Z" fill="#7D8592"/>
</svg>

