<svg width="24" height="24" viewBox="0 0 24 24" fill="none" xmlns="http://www.w3.org/2000/svg">
<path fill-rule="evenodd" clip-rule="evenodd" d="M14.4365 2.301C9.99034 1.18391 5.354 3.23285 3.18682 7.27258C1.01965 11.3123 1.87664 16.3082 5.26625 19.3948C8.65585 22.4813 13.71 22.8679 17.5297 20.3329C17.9898 20.0275 18.1153 19.4069 17.8099 18.9468C17.5045 18.4866 16.8839 18.3611 16.4237 18.6665C13.3679 20.6946 9.32454 20.3852 6.6128 17.916C3.90107 15.4467 3.21546 11.4499 4.94923 8.21805C6.68301 4.98621 10.3921 3.34702 13.9491 4.24071C17.5061 5.13441 20 8.3321 20.0003 11.9996C20.0003 13.8248 19.4254 14.7495 18.3753 14.7495C17.3252 14.7495 16.7503 13.8248 16.7503 11.9995V8.24955L16.7436 8.13292C16.6858 7.63559 16.2631 7.24955 15.7503 7.24955C15.2381 7.24955 14.8158 7.63462 14.7572 8.13105C13.9799 7.57607 13.0282 7.24955 12.0003 7.24955C9.37694 7.24955 7.25029 9.37619 7.25029 11.9995C7.25029 14.6229 9.37694 16.7495 12.0003 16.7495C13.3916 16.7495 14.6432 16.1514 15.5119 15.1981C16.1133 16.1721 17.0695 16.7495 18.3753 16.7495C20.7815 16.7495 22.0003 14.789 22.0003 11.9995C21.9999 7.41513 18.8826 3.41809 14.4365 2.301ZM14.7503 11.9995C14.7503 10.4808 13.5191 9.24955 12.0003 9.24955C10.4815 9.24955 9.25029 10.4808 9.25029 11.9995C9.25029 13.5183 10.4815 14.7495 12.0003 14.7495C13.5191 14.7495 14.7503 13.5183 14.7503 11.9995Z" fill="#3F8CFF"/>
</svg>

