<svg width="24" height="24" viewBox="0 0 24 24" fill="none" xmlns="http://www.w3.org/2000/svg">
<path fill-rule="evenodd" clip-rule="evenodd" d="M14 1C15.5977 1 16.9037 2.24892 16.9949 3.82373L17 4V5H19H21C21.5523 5 22 5.44772 22 6C22 6.51284 21.614 6.93551 21.1166 6.99327L21 7H20V20C20 21.5977 18.7511 22.9037 17.1763 22.9949L17 23H7C5.40232 23 4.09634 21.7511 4.00509 20.1763L4 20V7H3C2.44772 7 2 6.55228 2 6C2 5.48716 2.38604 5.06449 2.88338 5.00673L3 5H5H7V4C7 2.40232 8.24892 1.09634 9.82373 1.00509L10 1H14ZM6 7V20C6 20.5128 6.38604 20.9355 6.88338 20.9933L7 21H17C17.5128 21 17.9355 20.614 17.9933 20.1166L18 20V7H16H8H6ZM15 5H9V4L9.00673 3.88338C9.06449 3.38604 9.48716 3 10 3H14L14.1166 3.00673C14.614 3.06449 15 3.48716 15 4V5ZM10 10C10.5128 10 10.9355 10.386 10.9933 10.8834L11 11V17C11 17.5523 10.5523 18 10 18C9.48716 18 9.06449 17.614 9.00673 17.1166L9 17V11C9 10.4477 9.44772 10 10 10ZM14.9933 10.8834C14.9355 10.386 14.5128 10 14 10C13.4477 10 13 10.4477 13 11V17L13.0067 17.1166C13.0645 17.614 13.4872 18 14 18C14.5523 18 15 17.5523 15 17V11L14.9933 10.8834Z" fill="#F65160"/>
</svg>

