<svg width="24" height="24" viewBox="0 0 24 24" fill="none" xmlns="http://www.w3.org/2000/svg">
<path fill-rule="evenodd" clip-rule="evenodd" d="M19 1H5C2.79086 1 1 2.79086 1 5V10C1 14.3666 3.65957 18.1686 8.83853 21.3794C10.7752 22.58 13.2248 22.58 15.1615 21.3794L15.5314 21.1463C20.4685 17.983 23 14.2589 23 10V5C23 2.79086 21.2091 1 19 1ZM5 3H19C20.1046 3 21 3.89543 21 5V10C21 13.4932 18.8637 16.636 14.4587 19.4583L14.1014 19.6834C12.8165 20.4799 11.1835 20.4799 9.89235 19.6795C5.25072 16.8019 3 13.5843 3 10V5C3 3.89543 3.89543 3 5 3ZM17.7133 6.29031C17.3229 5.89968 16.6897 5.89951 16.2991 6.28993L11 11.585L8.71133 9.2921L8.61719 9.20883C8.22516 8.90348 7.6579 8.93073 7.29712 9.29091C6.90627 9.68111 6.90574 10.3143 7.29593 10.7051L10.2923 13.7065L10.3865 13.7898C10.7787 14.0953 11.3462 14.0678 11.7069 13.7073L17.7129 7.70452L17.7961 7.61034C18.1013 7.21813 18.0737 6.65089 17.7133 6.29031Z" fill="#7D8592"/>
</svg>

